<?xml version="1.0" encoding="UTF-8"?>
<svg version="1.1" xmlns="http://www.w3.org/2000/svg" width="500" height="500">
<path d="M0 0 C4.92959122 -0.04942899 9.85903825 -0.08573318 14.78881836 -0.10986328 C16.46592725 -0.11992237 18.14301861 -0.13357122 19.82006836 -0.15087891 C22.23035002 -0.17513152 24.64039986 -0.1864839 27.05078125 -0.1953125 C28.17592888 -0.21079636 28.17592888 -0.21079636 29.32380676 -0.22659302 C33.10300779 -0.227408 34.77414399 -0.15057067 38 2 C39.63360403 10.53091319 39.12666217 19.40703805 39.09765625 28.06640625 C39.09578815 29.71264096 39.0943661 31.35887623 39.09336853 33.00511169 C39.08957421 37.31061371 39.07977071 41.61608129 39.06866455 45.92156982 C39.05838366 50.32596369 39.05385668 54.73036319 39.04882812 59.13476562 C39.0381453 67.75652611 39.0211065 76.37825876 39 85 C44.60745936 83.53604791 47.15880274 82.38993973 51 78 C51.680625 77.29746094 52.36125 76.59492188 53.0625 75.87109375 C59.51082571 69.08510234 66.44223667 61.06832262 68.125 51.5625 C67.98421864 46.66422554 67.98421864 46.66422554 65 43 C61.39458241 41.68314645 57.75413977 40.78397146 54 40 C54 38.68 54 37.36 54 36 C69.84 36 85.68 36 102 36 C102 37.32 102 38.64 102 40 C100.92621094 40.50789063 99.85242188 41.01578125 98.74609375 41.5390625 C86.07021627 47.62925695 78.72334672 53.80841952 70 65 C69.37609375 65.64710938 68.7521875 66.29421875 68.109375 66.9609375 C66.72576867 69.00034698 66.72576867 69.00034698 67.44921875 71.56640625 C69.67252492 76.48904132 72.21001486 81.20619188 74.8125 85.9375 C75.38492432 86.98566895 75.95734863 88.03383789 76.54711914 89.11376953 C87.74717129 109.65525366 87.74717129 109.65525366 99.80297852 129.69775391 C101 132 101 132 102 137 C88.8 137 75.6 137 62 137 C62 135.68 62 134.36 62 133 C62.99 132.34 63.98 131.68 65 131 C64.44637223 126.71125646 63.43324447 123.37075293 61.48828125 119.515625 C60.97716797 118.49726563 60.46605469 117.47890625 59.93945312 116.4296875 C59.40255859 115.38039063 58.86566406 114.33109375 58.3125 113.25 C57.79494141 112.21617187 57.27738281 111.18234375 56.74414062 110.1171875 C55.19750254 107.05858068 53.60674873 104.02739526 52 101 C51.26402588 99.55270508 51.26402588 99.55270508 50.51318359 98.07617188 C50.0280127 97.17962891 49.5428418 96.28308594 49.04296875 95.359375 C48.62426514 94.56499023 48.20556152 93.77060547 47.77416992 92.95214844 C45.60667532 90.22285718 45.60667532 90.22285718 39 89 C39 102.2 39 115.4 39 129 C40.65 129.66 42.3 130.32 44 131 C45.8125 132.625 45.8125 132.625 47 134 C46.67 134.99 46.34 135.98 46 137 C14.32 137 -17.36 137 -50 137 C-50.33 135.68 -50.66 134.36 -51 133 C-50.4349173 132.8461232 -49.86983459 132.6922464 -49.28762817 132.53370667 C-46.46047294 131.36473553 -44.97898683 130.36320832 -43 128 C-41.71191333 122.08521704 -41.87949069 116.18300124 -41.9296875 110.15234375 C-41.91708403 108.37542733 -41.90125948 106.59853109 -41.88235474 104.82167053 C-41.85070672 101.10169554 -41.84471029 97.3829188 -41.859375 93.6628418 C-41.87800783 88.89518016 -41.85348212 84.12906435 -41.81239128 79.36157894 C-41.77471557 74.8127101 -41.75720757 70.26383528 -41.7421875 65.71484375 C-41.73790615 64.84724867 -41.7336248 63.97965359 -41.72921371 63.08576775 C-41.72103126 60.62985051 -41.72702408 58.1744044 -41.73779297 55.71850586 C-41.73382004 54.99268311 -41.72984711 54.26686035 -41.72575378 53.51904297 C-41.7577523 49.87550181 -41.85659449 47.02695479 -44 44 C-45.65948148 42.98812105 -47.32580562 41.9873454 -49 41 C-49.495 39.515 -49.495 39.515 -50 38 C-45.99712883 33.99712883 -32.86555263 35.86856993 -27.125 35.8125 C-26.42439453 35.79952881 -25.72378906 35.78655762 -25.00195312 35.77319336 C-20.25221205 35.76473584 -16.44487823 36.47100736 -12 38 C-9.97967442 40.02032558 -10.83554045 44.1713864 -10.82641602 46.94458008 C-10.819729 47.777108 -10.81304199 48.60963593 -10.80615234 49.46739197 C-10.79206728 51.28168567 -10.78018434 53.09599745 -10.77020454 54.91031837 C-10.75384324 57.7805853 -10.73060675 60.65071862 -10.70530701 63.5209198 C-10.63440246 71.68388244 -10.57442323 79.84690047 -10.52319336 88.01000977 C-10.49141044 92.99735689 -10.45013289 97.98455246 -10.40299797 102.97177696 C-10.38696932 104.87475546 -10.37465175 106.77776892 -10.36609077 108.68079567 C-10.35394401 111.34309906 -10.32979579 114.0050461 -10.30297852 116.66723633 C-10.30238937 117.45544769 -10.30180023 118.24365906 -10.30119324 119.05575562 C-10.23141417 124.34022296 -10.23141417 124.34022296 -8 129 C-5.82137181 131.00719496 -5.82137181 131.00719496 -3 132 C0.62187134 131.2031883 2.90966891 130.06022073 6 128 C6.97034563 125.0889631 7.12444757 123.25177951 7.12266541 120.22438049 C7.12429687 119.24158112 7.12592834 118.25878174 7.12760925 117.24620056 C7.12232964 115.63075096 7.12232964 115.63075096 7.11694336 113.98266602 C7.11697357 112.84748535 7.11700378 111.71230469 7.11703491 110.54272461 C7.11463884 106.77973946 7.10348952 103.01686681 7.08984375 99.25390625 C7.08538301 97.97084028 7.08092228 96.68777431 7.07632637 95.36582756 C7.05592888 89.97590233 7.03313433 84.58601126 7.00185299 79.19613743 C6.95726402 71.47295424 6.93270473 63.75028991 6.93560117 56.02697426 C6.93604034 49.94040691 6.90389841 43.85439131 6.86038399 37.7679882 C6.84670709 35.17840847 6.84326811 32.58875414 6.85014153 29.99914742 C6.8575545 26.38088505 6.82775659 22.76474714 6.78881836 19.14672852 C6.79946823 18.07178635 6.8101181 16.99684418 6.8210907 15.889328 C6.77030425 13.1249124 6.69202798 10.67723047 6 8 C3.09379774 5.50904559 3.09379774 5.50904559 0 4 C0 2.68 0 1.36 0 0 Z " fill="#DBCDC6" transform="translate(226,177)"/>
<path d="M0 0 C2.21632276 2.21632276 2.42666498 3.09435437 3.078125 6.0703125 C5.9851129 20.34913515 5.9851129 20.34913515 15.5234375 30.65234375 C23.2560841 34.89182426 31.47467194 37.02007408 40 39 C37.23701145 41.76298855 34.13234375 42.00668733 30.4375 42.8125 C21.1893926 45.00766422 13.76030356 47.60416088 8.20703125 55.7734375 C6.09495505 59.66950038 5.05038389 63.71718475 4 68 C3.44081537 70.04257719 2.8783534 72.08426019 2.3125 74.125 C1.87370898 75.74965187 1.43572657 77.37452358 1 79 C-1.94657637 76.05342363 -2.27906625 72.37277159 -3.25 68.4375 C-5.53864627 59.8176692 -7.89024667 52.30050556 -15.75 47.25 C-22.99347181 43.65953988 -31.19966465 41.97743129 -39 40 C-36.24730865 37.24730865 -33.18173247 37.03729398 -29.5 36.25 C-21.29931849 34.32388087 -13.42029085 31.81266249 -8.1875 24.75 C-4.99925056 18.96349746 -3.64539606 12.21001223 -2.015625 5.8515625 C-1 2 -1 2 0 0 Z " fill="#DBCDC6" transform="translate(138,127)"/>
<path d="M0 0 C4.61149053 2.97184945 6.44994192 5.31392659 7.75 10.6875 C8.08562097 15.02601501 6.99822929 18.02390256 4.8125 21.8125 C1.35043935 25.68186191 -1.95943163 26.56845797 -6.9765625 26.91015625 C-10.36330085 26.76056533 -12.42797764 25.73774816 -15.1875 23.8125 C-19.059559 19.52184003 -20.56088593 16.84580666 -20.46484375 10.9765625 C-19.96858228 7.10432514 -18.53035473 4.95685766 -16.1875 1.8125 C-10.8710974 -1.84991068 -6.02437626 -2.24437547 0 0 Z " fill="#DBCDC6" transform="translate(206.1875,168.1875)"/>
<path d="M0 0 C1.62580966 0.11398665 3.25067157 0.24155659 4.875 0.375 C5.77992188 0.44460937 6.68484375 0.51421875 7.6171875 0.5859375 C10 1 10 1 12 3 C9.0449595 3.86585625 6.08554318 4.71566785 3.125 5.5625 C2.28324219 5.80935547 1.44148437 6.05621094 0.57421875 6.31054688 C-0.23144531 6.53935547 -1.03710938 6.76816406 -1.8671875 7.00390625 C-2.98262939 7.32597046 -2.98262939 7.32597046 -4.12060547 7.65454102 C-6 8 -6 8 -8 7 C-6 5 -6 5 -2.875 4.875 C-1.92625 4.91625 -0.9775 4.9575 0 5 C-0.66 4.67 -1.32 4.34 -2 4 C-2 3.34 -2 2.68 -2 2 C-1.34 2 -0.68 2 0 2 C0 1.34 0 0.68 0 0 Z " fill="#D3C9C4" transform="translate(166,164)"/>
<path d="M0 0 C2.64 0 5.28 0 8 0 C7.34 1.32 6.68 2.64 6 4 C4.02 4 2.04 4 0 4 C0 2.68 0 1.36 0 0 Z " fill="#D1C7C2" transform="translate(280,213)"/>
<path d="M0 0 C1.32 0 2.64 0 4 0 C4 0.66 4 1.32 4 2 C4.78375 1.938125 5.5675 1.87625 6.375 1.8125 C7.674375 1.9053125 7.674375 1.9053125 9 2 C9.99 3.485 9.99 3.485 11 5 C6.71 4.01 2.42 3.02 -2 2 C-1.34 1.34 -0.68 0.68 0 0 Z " fill="#C9BFBB" transform="translate(101,165)"/>
<path d="M0 0 C0.99 0.495 0.99 0.495 2 1 C2.73075648 3.3140622 3.40138258 5.64828869 4 8 C3.34 8.66 2.68 9.32 2 10 C0.68373308 6.38026598 0 3.90432869 0 0 Z " fill="#CFBCB9" transform="translate(136,196)"/>
<path d="M0 0 C2.31 0.33 4.62 0.66 7 1 C5 3 5 3 1.875 3.125 C0.451875 3.063125 0.451875 3.063125 -1 3 C-0.67 2.01 -0.34 1.02 0 0 Z " fill="#CAC3C0" transform="translate(171,165)"/>
</svg>
